<svg id="Capa_1" enable-background="new 0 0 512 512" height="512" viewBox="0 0 512 512" width="512" xmlns="http://www.w3.org/2000/svg"><g><path d="m349.79 59.22-89 30c-1.6.54-3.22.8-4.79.8v-90.02c1.57 0 3.19.26 4.79.8l89 30c13.57 4.57 13.58 23.85 0 28.42z" fill="#ffca0f"/><path d="m246 93.83v267.17h-183c-12.524 0-19.57-14.534-11.71-24.38 205.082-255.956 192.901-241.188 194.71-242.79z" fill="#fe5c6e"/><path d="m271 15v381h-30v-381c0-8.28 6.72-15 15-15s15 6.72 15 15z" fill="#f0f0f7"/><path d="m271 15v381h-15v-396c8.28 0 15 6.72 15 15z" fill="#e6e7f5"/><path d="m468.393 396h-219.35c76.13-89.14 79-213.1 22.09-304.59 152.02 8.92 250.42 164.11 197.26 304.59z" fill="#f0373c"/><path d="m494.64 412.25-27.38 59.74c-23.081-16.143-45.802-13.28-67.09 4.66-16.72 14.1-30.619 14.119-47.35 0-24.006-20.231-48.855-20.475-73.15 0-16.729 14.108-30.614 14.132-47.35 0-23.665-19.944-48.524-20.763-73.14 0-16.746 14.105-30.605 14.132-47.36 0-21.28-17.934-43.972-20.802-67.07-4.67l-27.39-59.73c-4.528-9.911 2.705-21.25 13.64-21.25h450c10.94 0 18.166 11.343 13.64 21.25z" fill="#465a61"/><path d="m494.64 412.25c-1.143 2.494 6.471-14.119-27.38 59.74-23.08-16.14-45.8-13.28-67.09 4.66-16.72 14.1-30.62 14.12-47.35 0-24.01-20.23-48.85-20.48-73.15 0-8.37 7.06-16.01 10.59-23.67 10.59v-96.24h225c10.94 0 18.17 11.34 13.64 21.25z" fill="#2f4247"/><path d="m512 498v14h-512v-14c0-8.28 6.72-15 15-15 9.58 0 13.67-3.45 20.45-9.17 26.03-21.95 53.61-21.92 79.59 0 14.86 12.53 26.07 12.52 40.91 0 26.03-21.95 53.6-21.92 79.59 0 14.86 12.53 26.06 12.52 40.91 0 26.03-21.95 53.6-21.92 79.59 0 14.86 12.53 26.06 12.52 40.91 0 26.03-21.95 53.6-21.92 79.59 0 6.78 5.72 10.88 9.17 20.46 9.17 8.28 0 15 6.72 15 15z" fill="#30c4ff"/><path d="m512 498v14h-256v-28.78c6.52 0 13.02-3.13 20.45-9.39 26.03-21.95 53.6-21.92 79.59 0 14.86 12.53 26.06 12.52 40.91 0 26.03-21.95 53.6-21.92 79.59 0 6.78 5.72 10.88 9.17 20.46 9.17 8.28 0 15 6.72 15 15z" fill="#1b9cf7"/></g></svg>